#!OML:ASF E:\Style4\Style4.ASF
:FULLY-SPECIFIED
:DEGREES
2501
root 0.472898 17.2665 -2.83345 6.18946 -1.62965 3.34164
lowerback 19.0065 0.769245 -4.35741
upperback 12.4097 0.355107 3.1554
thorax 2.77075 -0.219313 5.78539
lowerneck 7.54581 -0.749024 -8.19556
upperneck 6.68758 -1.54983 0.704431
head 0.903142 -0.944396 1.63086
rclavicle -1.03368e-014 -1.43125e-014
rhumerus 72.8411 -19.2659 -51.1585
rradius 131.145
rwrist -61.6115
rhand 9.80203 7.44574
rfingers 7.12502
rthumb 34.9386 -19.1247
lclavicle -1.03368e-014 -1.43125e-014
lhumerus 48.3067 -69.4146 16.4864
lradius 121.665
lwrist 42.3054
lhand 1.42813 35.1208
lfingers 7.12502
lthumb 26.9575 63.2178
rfemur -33.5924 -0.953077 15.0078
rtibia 47.3484
rfoot -19.0227 -12.214
rtoes -8.21845
lfemur -31.121 2.20804 -24.565
ltibia 44.0568
lfoot -19.2798 7.55421
ltoes -12.9357
2502
root 0.472856 17.2359 -2.83013 5.97074 -1.4817 3.45524
lowerback 19.1615 0.723363 -4.3935
upperback 12.4602 0.286313 3.1031
thorax 2.75826 -0.254341 5.762
lowerneck 7.73433 -0.675434 -8.18323
upperneck 6.53653 -1.47459 0.777631
head 0.820474 -0.902813 1.65308
rclavicle 3.97569e-015 4.45278e-014
rhumerus 72.7875 -19.2754 -51.394
rradius 131.843
rwrist -60.3319
rhand 9.81075 8.30784
rfingers 7.12502
rthumb 34.9468 -18.2606
lclavicle 3.97569e-015 4.45278e-014
lhumerus 47.3067 -69.1193 18.0731
lradius 121.612
lwrist 42.1124
lhand 2.18777 35.5281
lfingers 7.12502
lthumb 27.6842 63.5106
rfemur -33.6381 -1.12153 14.8931
rtibia 47.9294
rfoot -19.3434 -12.2081
rtoes -8.24978
lfemur -31.18 2.18558 -24.6928
ltibia 44.607
lfoot -19.5745 7.29146
ltoes -12.0112
2503
root 0.474683 17.2032 -2.82434 5.78838 -1.41904 3.53887
lowerback 19.2171 0.697823 -4.39009
upperback 12.5215 0.252153 3.03088
thorax 2.80224 -0.270788 5.68803
lowerneck 7.98964 -0.637625 -7.99282
upperneck 6.29789 -1.43655 0.704019
head 0.69772 -0.873857 1.59674
rclavicle -5.56597e-015 -2.54444e-014
rhumerus 72.7643 -19.23 -51.6224
rradius 132.413
rwrist -58.8929
rhand 9.77017 9.38784
rfingers 7.12502
rthumb 34.9083 -17.1896
lclavicle -5.56597e-015 -2.54444e-014
lhumerus 46.0583 -68.8631 19.9293
lradius 121.612
lwrist 41.813
lhand 2.59519 36.1921
lfingers 7.12502
lthumb 28.0737 64.1114
rfemur -33.7479 -1.20798 14.7869
rtibia 48.5305
rfoot -19.7552 -12.0943
rtoes -7.87904
lfemur -31.292 2.14585 -24.7938
ltibia 45.191
lfoot -19.919 7.23671
ltoes -11.6923
2504
root 0.476405 17.1692 -2.81738 5.59327 -1.42358 3.53911
lowerback 19.2305 0.691997 -4.32364
upperback 12.5893 0.25351 2.97508
thorax 2.86886 -0.267276 5.58955
lowerneck 8.32841 -0.583246 -7.75566
upperneck 6.04162 -1.38134 0.691213
head 0.555362 -0.835243 1.55262
rclavicle -1.03368e-014 -7.15625e-015
rhumerus 72.721 -19.1604 -51.8161
rradius 132.995
rwrist -57.6328
rhand 9.40328 10.4736
rfingers 7.12502
rthumb 34.5602 -16.184
lclavicle -1.03368e-014 -7.15625e-015
lhumerus 44.6613 -68.7817 21.9339
lradius 121.562
lwrist 41.2907
lhand 2.60228 36.5494
lfingers 7.12502
lthumb 28.0804 64.4675
rfemur -33.8554 -1.22872 14.7813
rtibia 49.1504
rfoot -20.0317 -12.0751
rtoes -7.95211
lfemur -31.412 2.21905 -24.8123
ltibia 45.8055
lfoot -20.1594 7.33038
ltoes -12.5188
2505
root 0.475905 17.1354 -2.81066 5.37143 -1.42752 3.5428
lowerback 19.2759 0.69747 -4.31632
upperback 12.6629 0.259805 2.93513
thorax 2.92662 -0.265494 5.54168
lowerneck 8.3262 -0.521026 -7.77128
upperneck 6.13587 -1.30512 0.920246
head 0.583558 -0.800495 1.62846
rclavicle -1.51076e-014 1.59028e-015
rhumerus 72.5692 -19.0276 -52.0057
rradius 133.726
rwrist -56.8002
rhand 9.034 11.3925
rfingers 7.12502
rthumb 34.2096 -15.3445
lclavicle -1.51076e-014 1.59028e-015
lhumerus 43.1297 -68.6907 24.1258
lradius 121.424
lwrist 41.0196
lhand 2.77254 36.6808
lfingers 7.12502
lthumb 28.2432 64.5722
rfemur -33.9297 -1.2902 14.8048
rtibia 49.777
rfoot -20.2494 -12.155
rtoes -8.33054
lfemur -31.5143 2.32624 -24.8161
ltibia 46.4527
lfoot -20.4339 7.30338
ltoes -13.0782
2506
root 0.475018 17.0987 -2.80438 5.14196 -1.4097 3.54464
lowerback 19.369 0.691528 -4.34299
upperback 12.717 0.244902 2.92972
thorax 2.94267 -0.276378 5.55452
lowerneck 8.13284 -0.474533 -7.98652
upperneck 6.41074 -1.24635 1.16726
head 0.703617 -0.782482 1.74491
rclavicle 1.90833e-014 7.15625e-015
rhumerus 72.3999 -18.8095 -52.1608
rradius 134.434
rwrist -56.5122
rhand 8.88587 12.1384
rfingers 7.12502
rthumb 34.0689 -14.6301
lclavicle 1.90833e-014 7.15625e-015
lhumerus 40.7877 -68.494 27.2149
lradius 121.339
lwrist 41.2779
lhand 3.24756 37.0654
lfingers 7.12502
lthumb 28.6971 64.8808
rfemur -34.0061 -1.4017 14.8279
rtibia 50.4109
rfoot -20.4734 -12.1748
rtoes -8.70647
lfemur -31.6187 2.40308 -24.8164
ltibia 47.1232
lfoot -20.5503 7.23778
ltoes -13.5015
2507
root 0.475151 17.0603 -2.79666 4.92433 -1.4059 3.52027
lowerback 19.472 0.672589 -4.35391
upperback 12.7254 0.214949 2.94161
thorax 2.9045 -0.292059 5.57941
lowerneck 8.24527 -0.426739 -8.12273
upperneck 6.37422 -1.20985 1.35841
head 0.673758 -0.766715 1.83245
rclavicle 1.51076e-014 -7.95139e-016
rhumerus 72.3032 -18.5454 -52.3304
rradius 134.956
rwrist -56.8413
rhand 8.75988 13.0157
rfingers 7.12502
rthumb 33.9492 -13.7793
lclavicle 1.51076e-014 -7.95139e-016
lhumerus 37.8597 -68.45 30.8638
lradius 121.224
lwrist 41.0746
lhand 3.6082 37.2832
lfingers 7.12502
lthumb 29.0416 65.0398
rfemur -34.0886 -1.47798 14.8618
rtibia 51.0262
rfoot -20.7616 -12.1354
rtoes -8.83335
lfemur -31.7248 2.46505 -24.7834
ltibia 47.8008
lfoot -20.8108 7.17306
ltoes -13.655
2508
root 0.476687 17.0232 -2.78596 4.69004 -1.45686 3.54551
lowerback 19.5599 0.687631 -4.41097
upperback 12.7598 0.222133 2.90624
thorax 2.89847 -0.291453 5.57334
lowerneck 8.44469 -0.385818 -8.18812
upperneck 6.1746 -1.19192 1.73942
head 0.578233 -0.755477 1.9718
rclavicle -3.97569e-015 -1.11319e-014
rhumerus 72.1939 -18.3222 -52.5965
rradius 135.427
rwrist -57.5383
rhand 8.66599 13.9062
rfingers 7.12502
rthumb 33.86 -12.9086
lclavicle -3.97569e-015 -1.11319e-014
lhumerus 35.1355 -68.5252 34.247
lradius 121.072
lwrist 40.4267
lhand 3.55334 37.24
lfingers 7.12502
lthumb 28.9892 65.0056
rfemur -34.1491 -1.55449 14.8365
rtibia 51.62
rfoot -21.0548 -12.0508
rtoes -9.24263
lfemur -31.7886 2.52811 -24.8154
ltibia 48.4667
lfoot -21.2228 7.15958
ltoes -13.6497
2509
root 0.47833 16.9882 -2.77534 4.46908 -1.50608 3.57254
lowerback 19.6215 0.721562 -4.37489
upperback 12.8568 0.268631 2.78919
thorax 2.9678 -0.265074 5.41863
lowerneck 8.38887 -0.390382 -8.11447
upperneck 6.10956 -1.20161 2.24555
head 0.568939 -0.758101 2.12685
rclavicle 1.59028e-015 -6.36111e-015
rhumerus 72.0057 -18.228 -52.8917
rradius 135.864
rwrist -58.247
rhand 8.64959 14.3129
rfingers 7.12502
rthumb 33.8444 -12.5053
lclavicle 1.59028e-015 -6.36111e-015
lhumerus 32.764 -68.5439 37.2588
lradius 120.858
lwrist 39.4265
lhand 3.80458 37.0989
lfingers 7.12502
lthumb 29.2291 64.823
rfemur -34.2428 -1.6329 14.8246
rtibia 52.2127
rfoot -21.1645 -12.2401
rtoes -11.0561
lfemur -31.8519 2.59147 -24.8566
ltibia 49.1018
lfoot -21.5086 7.17216
ltoes -13.903
2510
root 0.484502 16.9526 -2.76592 4.2625 -1.57979 3.65918
lowerback 19.6677 0.745074 -4.36685
upperback 12.9389 0.29789 2.67505
thorax 3.03122 -0.248635 5.28601
lowerneck 8.5278 -0.379199 -7.97487
upperneck 5.80373 -1.19661 2.54193
head 0.447607 -0.748131 2.20211
rclavicle -3.97569e-015 -2.54444e-014
rhumerus 71.8513 -18.0921 -53.0738
rradius 136.159
rwrist -58.9492
rhand 8.51736 14.5609
rfingers 7.12502
rthumb 33.7188 -12.2848
lclavicle -3.97569e-015 -2.54444e-014
lhumerus 29.7629 -68.4361 41.0206
lradius 120.63
lwrist 38.2449
lhand 4.33409 37.1855
lfingers 7.12502
lthumb 29.7346 64.8205
rfemur -34.3879 -1.71024 14.7285
rtibia 52.8199
rfoot -21.2917 -12.5014
rtoes -12.9271
lfemur -31.9273 2.64327 -24.9725
ltibia 49.7152
lfoot -21.7817 7.20486
ltoes -14.1295
